<svg xmlns="http://www.w3.org/2000/svg" version="1.1" xmlns:xlink="http://www.w3.org/1999/xlink" xmlns:svgjs="http://svgjs.dev/svgjs" width="100%" height="100%" viewBox="0 0 1000 600"><rect width="1000" height="600" x="0" y="0" fill="#2c2c6c"/><g><circle r="166.66666666666666" cx="281.6164194742838" cy="303.8386442268888" fill="rgba(255, 255, 255, 0.6)" transform="matrix(1.0874317036607015,0,0,1.0874317036607015,0,-30.403771095333823)"/><path d="M314.74288809907534 367.56729851597277L299.5721103300883 328.6299176754958L252.0389041871084 328.6299176754958L238.71822126799785 367.56729851597277L254.48672198848342 371.66597018339144Q255.11290793767236 375.56540086697714 253.46205407162873 378.83864560137397L253.46205407162873 378.83864560137397Q235.01803156824494 377.8139776845194 228.47154209945128 377.8139776845194L228.47154209945128 377.8139776845194Q224.97059338353122 377.8139776845194 221.6973486491344 378.01321866835224Q218.42410391473757 378.2124596521851 215.3501001641736 378.44016363370827Q212.27609641360962 378.6394046175411 209.60057463071135 378.83864560137397L209.60057463071135 378.83864560137397Q209.0028516792128 374.93921491778826 210.02751959606746 371.66597018339144L210.02751959606746 371.66597018339144Q219.24953084775936 370.4420612827039 225.796020316553 367.56729851597277L225.796020316553 367.56729851597277L274.38235737407797 230.4610386412816Q277.45636112464194 228.83864777292837 282.351996727392 228.83864777292837L282.351996727392 228.83864777292837L337.91176821906674 367.56729851597277L353.6802689395523 371.66597018339144Q354.3064548887412 375.56540086697714 352.6556010226976 378.83864560137397L352.6556010226976 378.83864560137397Q334.2115785193138 377.8139776845194 327.6650890505201 377.8139776845194L327.6650890505201 377.8139776845194Q316.9914649166175 377.8139776845194 297.94971946173507 378.83864560137397L297.94971946173507 378.83864560137397Q297.3235335125462 374.93921491778826 298.3482014294008 371.66597018339144L298.3482014294008 371.66597018339144Q307.9686946487584 370.4420612827039 314.74288809907534 367.56729851597277L314.74288809907534 367.56729851597277ZM274.7808393417437 258.9524993293792L274.7808393417437 258.9524993293792L274.38235737407797 258.9524993293792Q268.00664589142684 281.69443448401444 265.3595871062189 289.2940548673531L265.3595871062189 289.2940548673531L255.71063088917091 317.3585705900946L295.07495669500395 317.3585705900946L283.80360960960274 288.26938695049853Q277.22865714311877 273.0986091815115 274.7808393417437 258.9524993293792Z " fill="#ffffff" transform="matrix(1.0874317036607015,0,0,1.0874317036607015,0,-30.403771095333823)"/><path d="M531.6164143634516 300.1790595453631L614.1597130932154 256.4084401502729L614.1597130932154 267.9243123513355L547.7437879604653 304.8163235189453L614.1597130932154 341.7340972641862L614.1597130932154 353.2499694652488L531.6164143634516 309.4535874925276L531.6164143634516 300.1790595453631ZM630.6477627770635 378.65187100942705L630.6477627770635 378.65187100942705L693.534214774365 230.25942385479522Q701.7009518833959 228.40451826536233 705.977539770144 228.9712949732446L705.977539770144 228.9712949732446L643.2714258162596 377.1576415068283Q636.9595942966614 379.3989857607264 630.6477627770635 378.65187100942705ZM722.1049133671577 256.4084401502729L804.6482120969217 300.1790595453631L804.6482120969217 309.4535874925276L722.1049133671577 353.2499694652488L722.1049133671577 341.7340972641862L788.520838499908 304.8163235189453L722.1049133671577 267.9243123513355L722.1049133671577 256.4084401502729Z " fill="#ffffff" transform="matrix(1.0874317036607015,0,0,1.0874317036607015,0,-30.403771095333823)"/></g></svg>